<svg xmlns="http://www.w3.org/2000/svg" xmlns:xlink="http://www.w3.org/1999/xlink" width="100" zoomAndPan="magnify" viewBox="0 0 75 74.999997" height="100" preserveAspectRatio="xMidYMid meet" version="1.0"><defs><clipPath id="369495a028"><path d="M 15 15 L 71.957031 15 L 71.957031 72 L 15 72 Z M 15 15 " clip-rule="nonzero"/></clipPath></defs><g clip-path="url(#369495a028)"><path fill="#a3e635" d="M 23.695312 34.871094 C 24.976562 30.078125 29.902344 25.152344 34.695312 23.867188 L 64.566406 15.855469 C 69.359375 14.570312 72.203125 17.417969 70.917969 22.210938 L 62.914062 52.097656 C 61.628906 56.890625 56.703125 61.820312 51.910156 63.105469 L 22.039062 71.113281 C 17.246094 72.398438 14.40625 69.554688 15.6875 64.761719 Z M 23.695312 34.871094 " fill-opacity="0.5" fill-rule="nonzero"/></g><path fill="#a3e635" d="M 11.71875 22.890625 C 13.003906 18.097656 17.925781 13.167969 22.71875 11.882812 L 52.589844 3.875 C 57.382812 2.589844 60.226562 5.433594 58.941406 10.226562 L 50.9375 40.117188 C 49.652344 44.910156 44.726562 49.835938 39.9375 51.121094 L 10.0625 59.132812 C 5.273438 60.417969 2.429688 57.570312 3.710938 52.777344 Z M 11.71875 22.890625 " fill-opacity="1" fill-rule="nonzero"/></svg>